<svg width="64" height="64" viewBox="0 0 64 64" xmlns="http://www.w3.org/2000/svg">
  <defs>
    <linearGradient id="brass" x1="0%" y1="0%" x2="100%" y2="100%">
      <stop offset="0%" stop-color="#e8c165" />
      <stop offset="55%" stop-color="#b8860b" />
      <stop offset="100%" stop-color="#7a5a12" />
    </linearGradient>
  </defs>
  <rect width="64" height="64" rx="14" fill="#16110c" />
  <g fill="url(#brass)" stroke="#3a2a10" stroke-width="1">
    <path d="M32 6 L36 6 L37.5 14 C40 14.7 42.3 15.8 44.3 17.2 L51.5 12.8 L54.6 15.9 L54.6 15.9 L50.2 23.1 C51.6 25.1 52.7 27.4 53.4 29.9 L58 32 L58 36 L53.4 34.1 C52.7 36.6 51.6 38.9 50.2 40.9 L54.6 48.1 L51.5 51.2 L44.3 46.8 C42.3 48.2 40 49.3 37.5 50 L36 58 L32 58 L30.5 50 C28 49.3 25.7 48.2 23.7 46.8 L16.5 51.2 L13.4 48.1 L17.8 40.9 C16.4 38.9 15.3 36.6 14.6 34.1 L10 36 L10 32 L14.6 29.9 C15.3 27.4 16.4 25.1 17.8 23.1 L13.4 15.9 L16.5 12.8 L23.7 17.2 C25.7 15.8 28 14.7 30.5 14 Z" />
  </g>
  <circle cx="34" cy="32" r="10" fill="#16110c" stroke="#e8c165" stroke-width="2" />
  <circle cx="34" cy="32" r="3.4" fill="url(#brass)" />
</svg>
